<svg xmlns="http://www.w3.org/2000/svg" xmlns:xlink="http://www.w3.org/1999/xlink" version="1.1" id="Layer_1" x="0px" y="0px" viewBox="0 0 305.406 305.406" style="enable-background:new 0 0 305.406 305.406;" xml:space="preserve">
<g>
	<g>
		<g>
			<path d="M123.901,137.703c0,4.971,4.029,9,9,9h80c4.971,0,9-4.029,9-9s-4.029-9-9-9h-80     C127.93,128.703,123.901,132.732,123.901,137.703z"/>
			<path d="M212.901,177.686h-80c-4.971,0-9,4.029-9,9c0,4.971,4.029,9,9,9h80c4.971,0,9-4.029,9-9     C221.901,181.715,217.872,177.686,212.901,177.686z"/>
			<path d="M212.901,226.669h-80c-4.971,0-9,4.029-9,9s4.029,9,9,9h80c4.971,0,9-4.029,9-9S217.872,226.669,212.901,226.669z"/>
			<circle cx="101.901" cy="137.703" r="9.396"/>
			<circle cx="101.901" cy="186.686" r="9.396"/>
			<circle cx="101.901" cy="235.669" r="9.396"/>
			<path d="M267.067,70.613L199.091,2.636C197.402,0.948,195.113,0,192.727,0H44.703c-4.971,0-9,4.029-9,9v287.406     c0,4.971,4.029,9,9,9h216c4.971,0,9-4.029,9-9V76.977C269.703,74.59,268.755,72.301,267.067,70.613z M199.727,28.728     l41.249,41.249h-41.249V28.728z M251.703,287.406h-198V18h128.023v60.977c0,4.971,4.029,9,9,9h60.977V287.406z"/>
		</g>
	</g>
</g>
<g>
</g>
<g>
</g>
<g>
</g>
<g>
</g>
<g>
</g>
<g>
</g>
<g>
</g>
<g>
</g>
<g>
</g>
<g>
</g>
<g>
</g>
<g>
</g>
<g>
</g>
<g>
</g>
<g>
</g>
</svg>